<mxfile host="app.diagrams.net" agent="Mozilla/5.0 (Windows NT 10.0; Win64; x64) AppleWebKit/537.36 (KHTML, like Gecko) Chrome/132.0.0.0 Safari/537.36 Edg/132.0.0.0" version="26.0.11">
  <diagram name="第 1 页" id="uJlPjWzQXp5MNeEdv7A2">
    <mxGraphModel dx="1213" dy="738" grid="1" gridSize="10" guides="1" tooltips="1" connect="1" arrows="1" fold="1" page="1" pageScale="1" pageWidth="827" pageHeight="1169" math="0" shadow="0">
      <root>
        <mxCell id="0" />
        <mxCell id="1" parent="0" />
        <mxCell id="UX8fbm56eu4z_YtxRnjd-1" value="" style="edgeStyle=orthogonalEdgeStyle;rounded=0;orthogonalLoop=1;jettySize=auto;html=1;" edge="1" parent="1" source="UX8fbm56eu4z_YtxRnjd-4" target="UX8fbm56eu4z_YtxRnjd-8">
          <mxGeometry relative="1" as="geometry" />
        </mxCell>
        <mxCell id="UX8fbm56eu4z_YtxRnjd-2" value="&lt;font face=&quot;微软雅黑&quot; style=&quot;font-size: 12px;&quot;&gt;发送 http 登录请求&lt;/font&gt;" style="edgeLabel;html=1;align=center;verticalAlign=middle;resizable=0;points=[];" vertex="1" connectable="0" parent="UX8fbm56eu4z_YtxRnjd-1">
          <mxGeometry x="-0.1933" y="-1" relative="1" as="geometry">
            <mxPoint x="1" as="offset" />
          </mxGeometry>
        </mxCell>
        <mxCell id="UX8fbm56eu4z_YtxRnjd-3" style="edgeStyle=orthogonalEdgeStyle;rounded=0;orthogonalLoop=1;jettySize=auto;html=1;exitX=1;exitY=0.5;exitDx=0;exitDy=0;entryX=0.5;entryY=0;entryDx=0;entryDy=0;" edge="1" parent="1" source="UX8fbm56eu4z_YtxRnjd-4">
          <mxGeometry relative="1" as="geometry">
            <mxPoint x="340" y="100" as="sourcePoint" />
            <mxPoint x="620" y="130" as="targetPoint" />
            <Array as="points">
              <mxPoint x="620" y="100" />
            </Array>
          </mxGeometry>
        </mxCell>
        <mxCell id="UX8fbm56eu4z_YtxRnjd-4" value="&lt;font face=&quot;微软雅黑&quot; style=&quot;font-size: 14px;&quot;&gt;QT 客户端1&lt;/font&gt;" style="rounded=1;whiteSpace=wrap;html=1;" vertex="1" parent="1">
          <mxGeometry x="210" y="70" width="120" height="60" as="geometry" />
        </mxCell>
        <mxCell id="UX8fbm56eu4z_YtxRnjd-5" style="edgeStyle=orthogonalEdgeStyle;rounded=0;orthogonalLoop=1;jettySize=auto;html=1;exitX=0;exitY=0.25;exitDx=0;exitDy=0;entryX=0;entryY=0.5;entryDx=0;entryDy=0;dashed=1;" edge="1" parent="1" source="UX8fbm56eu4z_YtxRnjd-8" target="UX8fbm56eu4z_YtxRnjd-4">
          <mxGeometry relative="1" as="geometry">
            <mxPoint x="160" y="270" as="sourcePoint" />
            <mxPoint x="160" y="90" as="targetPoint" />
            <Array as="points">
              <mxPoint x="210" y="270" />
              <mxPoint x="80" y="270" />
              <mxPoint x="80" y="100" />
            </Array>
          </mxGeometry>
        </mxCell>
        <mxCell id="UX8fbm56eu4z_YtxRnjd-6" value="&lt;font face=&quot;微软雅黑&quot; style=&quot;font-size: 12px;&quot;&gt;回复 http 登录请求&lt;/font&gt;" style="edgeLabel;html=1;align=center;verticalAlign=middle;resizable=0;points=[];" vertex="1" connectable="0" parent="UX8fbm56eu4z_YtxRnjd-5">
          <mxGeometry x="-0.0294" relative="1" as="geometry">
            <mxPoint as="offset" />
          </mxGeometry>
        </mxCell>
        <mxCell id="UX8fbm56eu4z_YtxRnjd-7" style="edgeStyle=orthogonalEdgeStyle;rounded=0;orthogonalLoop=1;jettySize=auto;html=1;entryX=0;entryY=0.5;entryDx=0;entryDy=0;exitX=0;exitY=0.75;exitDx=0;exitDy=0;dashed=1;" edge="1" parent="1" source="UX8fbm56eu4z_YtxRnjd-8" target="UX8fbm56eu4z_YtxRnjd-23">
          <mxGeometry relative="1" as="geometry">
            <mxPoint x="180" y="305" as="sourcePoint" />
            <mxPoint x="130" y="470" as="targetPoint" />
            <Array as="points">
              <mxPoint x="80" y="305" />
              <mxPoint x="80" y="490" />
            </Array>
          </mxGeometry>
        </mxCell>
        <mxCell id="UX8fbm56eu4z_YtxRnjd-8" value="&lt;font face=&quot;微软雅黑&quot; style=&quot;font-size: 14px;&quot;&gt;GateServer&lt;/font&gt;" style="rounded=1;whiteSpace=wrap;html=1;" vertex="1" parent="1">
          <mxGeometry x="210" y="260" width="120" height="60" as="geometry" />
        </mxCell>
        <mxCell id="UX8fbm56eu4z_YtxRnjd-9" style="edgeStyle=orthogonalEdgeStyle;rounded=0;orthogonalLoop=1;jettySize=auto;html=1;exitX=0.75;exitY=1;exitDx=0;exitDy=0;entryX=1;entryY=0.25;entryDx=0;entryDy=0;" edge="1" parent="1" source="UX8fbm56eu4z_YtxRnjd-11" target="UX8fbm56eu4z_YtxRnjd-21">
          <mxGeometry relative="1" as="geometry" />
        </mxCell>
        <mxCell id="UX8fbm56eu4z_YtxRnjd-10" style="edgeStyle=orthogonalEdgeStyle;rounded=0;orthogonalLoop=1;jettySize=auto;html=1;exitX=0.75;exitY=0;exitDx=0;exitDy=0;entryX=0.5;entryY=0;entryDx=0;entryDy=0;dashed=1;" edge="1" parent="1" source="UX8fbm56eu4z_YtxRnjd-11" target="UX8fbm56eu4z_YtxRnjd-4">
          <mxGeometry relative="1" as="geometry" />
        </mxCell>
        <mxCell id="UX8fbm56eu4z_YtxRnjd-11" value="&lt;font face=&quot;微软雅黑&quot; style=&quot;font-size: 14px;&quot;&gt;ChatServer1&lt;/font&gt;" style="rounded=1;whiteSpace=wrap;html=1;" vertex="1" parent="1">
          <mxGeometry x="560" y="130" width="120" height="60" as="geometry" />
        </mxCell>
        <mxCell id="UX8fbm56eu4z_YtxRnjd-12" style="edgeStyle=orthogonalEdgeStyle;rounded=0;orthogonalLoop=1;jettySize=auto;html=1;exitX=0.75;exitY=0;exitDx=0;exitDy=0;entryX=1;entryY=0.75;entryDx=0;entryDy=0;" edge="1" parent="1" source="UX8fbm56eu4z_YtxRnjd-14" target="UX8fbm56eu4z_YtxRnjd-21">
          <mxGeometry relative="1" as="geometry" />
        </mxCell>
        <mxCell id="UX8fbm56eu4z_YtxRnjd-13" style="edgeStyle=orthogonalEdgeStyle;rounded=0;orthogonalLoop=1;jettySize=auto;html=1;exitX=0.75;exitY=1;exitDx=0;exitDy=0;entryX=0.5;entryY=1;entryDx=0;entryDy=0;dashed=1;" edge="1" parent="1" source="UX8fbm56eu4z_YtxRnjd-14" target="UX8fbm56eu4z_YtxRnjd-23">
          <mxGeometry relative="1" as="geometry" />
        </mxCell>
        <mxCell id="UX8fbm56eu4z_YtxRnjd-14" value="&lt;font face=&quot;微软雅黑&quot; style=&quot;font-size: 14px;&quot;&gt;ChatServer2&lt;/font&gt;" style="rounded=1;whiteSpace=wrap;html=1;" vertex="1" parent="1">
          <mxGeometry x="560" y="390" width="120" height="60" as="geometry" />
        </mxCell>
        <mxCell id="UX8fbm56eu4z_YtxRnjd-15" value="" style="edgeStyle=orthogonalEdgeStyle;rounded=0;orthogonalLoop=1;jettySize=auto;html=1;exitX=1;exitY=0.5;exitDx=0;exitDy=0;" edge="1" parent="1" target="UX8fbm56eu4z_YtxRnjd-21">
          <mxGeometry relative="1" as="geometry">
            <mxPoint x="330" y="289.5" as="sourcePoint" />
            <mxPoint x="707" y="289.5" as="targetPoint" />
          </mxGeometry>
        </mxCell>
        <mxCell id="UX8fbm56eu4z_YtxRnjd-16" value="&lt;div style=&quot;text-align: justify;&quot;&gt;&lt;br&gt;&lt;/div&gt;" style="edgeLabel;html=1;align=left;verticalAlign=middle;resizable=0;points=[];" vertex="1" connectable="0" parent="UX8fbm56eu4z_YtxRnjd-15">
          <mxGeometry x="-0.3267" y="3" relative="1" as="geometry">
            <mxPoint x="-274" y="94" as="offset" />
          </mxGeometry>
        </mxCell>
        <mxCell id="UX8fbm56eu4z_YtxRnjd-17" style="edgeStyle=orthogonalEdgeStyle;rounded=0;orthogonalLoop=1;jettySize=auto;html=1;exitX=0.5;exitY=0;exitDx=0;exitDy=0;entryX=0;entryY=0.5;entryDx=0;entryDy=0;" edge="1" parent="1" source="UX8fbm56eu4z_YtxRnjd-21" target="UX8fbm56eu4z_YtxRnjd-11">
          <mxGeometry relative="1" as="geometry" />
        </mxCell>
        <mxCell id="UX8fbm56eu4z_YtxRnjd-18" style="edgeStyle=orthogonalEdgeStyle;rounded=0;orthogonalLoop=1;jettySize=auto;html=1;exitX=0.5;exitY=1;exitDx=0;exitDy=0;entryX=0;entryY=0.5;entryDx=0;entryDy=0;" edge="1" parent="1" source="UX8fbm56eu4z_YtxRnjd-21" target="UX8fbm56eu4z_YtxRnjd-14">
          <mxGeometry relative="1" as="geometry" />
        </mxCell>
        <mxCell id="UX8fbm56eu4z_YtxRnjd-19" style="edgeStyle=orthogonalEdgeStyle;rounded=0;orthogonalLoop=1;jettySize=auto;html=1;exitX=0.25;exitY=1;exitDx=0;exitDy=0;entryX=0.75;entryY=1;entryDx=0;entryDy=0;dashed=1;" edge="1" parent="1" source="UX8fbm56eu4z_YtxRnjd-21" target="UX8fbm56eu4z_YtxRnjd-8">
          <mxGeometry relative="1" as="geometry" />
        </mxCell>
        <mxCell id="UX8fbm56eu4z_YtxRnjd-20" value="&lt;font style=&quot;font-size: 12px;&quot; face=&quot;微软雅黑&quot;&gt;rpc 回传&lt;/font&gt;" style="edgeLabel;html=1;align=center;verticalAlign=middle;resizable=0;points=[];" vertex="1" connectable="0" parent="UX8fbm56eu4z_YtxRnjd-19">
          <mxGeometry x="0.1547" y="2" relative="1" as="geometry">
            <mxPoint x="19" y="-2" as="offset" />
          </mxGeometry>
        </mxCell>
        <mxCell id="UX8fbm56eu4z_YtxRnjd-21" value="&lt;font face=&quot;微软雅黑&quot; style=&quot;font-size: 14px;&quot;&gt;StatusServer&lt;/font&gt;" style="rounded=1;whiteSpace=wrap;html=1;" vertex="1" parent="1">
          <mxGeometry x="480" y="260" width="120" height="60" as="geometry" />
        </mxCell>
        <mxCell id="UX8fbm56eu4z_YtxRnjd-22" style="edgeStyle=orthogonalEdgeStyle;rounded=0;orthogonalLoop=1;jettySize=auto;html=1;exitX=0.5;exitY=0;exitDx=0;exitDy=0;entryX=0.5;entryY=1;entryDx=0;entryDy=0;" edge="1" parent="1" source="UX8fbm56eu4z_YtxRnjd-23" target="UX8fbm56eu4z_YtxRnjd-8">
          <mxGeometry relative="1" as="geometry" />
        </mxCell>
        <mxCell id="UX8fbm56eu4z_YtxRnjd-23" value="&lt;font face=&quot;微软雅黑&quot; style=&quot;font-size: 14px;&quot;&gt;QT 客户端2&lt;/font&gt;" style="rounded=1;whiteSpace=wrap;html=1;" vertex="1" parent="1">
          <mxGeometry x="210" y="460" width="120" height="60" as="geometry" />
        </mxCell>
        <mxCell id="UX8fbm56eu4z_YtxRnjd-24" value="&lt;font face=&quot;微软雅黑&quot;&gt;调用 grpc 获取聊天&lt;/font&gt;&lt;div&gt;&lt;font face=&quot;微软雅黑&quot;&gt;服务 ip 和 token&lt;/font&gt;&lt;/div&gt;" style="text;html=1;align=center;verticalAlign=middle;resizable=0;points=[];autosize=1;strokeColor=none;fillColor=none;" vertex="1" parent="1">
          <mxGeometry x="340" y="240" width="130" height="40" as="geometry" />
        </mxCell>
        <mxCell id="UX8fbm56eu4z_YtxRnjd-25" style="edgeStyle=orthogonalEdgeStyle;rounded=0;orthogonalLoop=1;jettySize=auto;html=1;exitX=1;exitY=0.5;exitDx=0;exitDy=0;entryX=0.5;entryY=1;entryDx=0;entryDy=0;" edge="1" parent="1" source="UX8fbm56eu4z_YtxRnjd-23" target="UX8fbm56eu4z_YtxRnjd-14">
          <mxGeometry relative="1" as="geometry" />
        </mxCell>
        <mxCell id="UX8fbm56eu4z_YtxRnjd-26" value="&lt;font face=&quot;微软雅黑&quot; style=&quot;font-size: 12px;&quot;&gt;发送 http 登录请求&lt;/font&gt;" style="edgeLabel;html=1;align=center;verticalAlign=middle;resizable=0;points=[];" vertex="1" connectable="0" parent="1">
          <mxGeometry x="260" y="390" as="geometry" />
        </mxCell>
        <mxCell id="UX8fbm56eu4z_YtxRnjd-27" value="&lt;font face=&quot;微软雅黑&quot; style=&quot;font-size: 12px;&quot;&gt;回复 http 登录请求&lt;/font&gt;" style="edgeLabel;html=1;align=center;verticalAlign=middle;resizable=0;points=[];" vertex="1" connectable="0" parent="1">
          <mxGeometry x="80" y="390" as="geometry" />
        </mxCell>
      </root>
    </mxGraphModel>
  </diagram>
</mxfile>
